<svg id="Layer_1" data-name="Layer 1" xmlns="http://www.w3.org/2000/svg" viewBox="0 0 134.49 28.97"><defs><style>.cls-1{fill:#464950;}</style></defs><title>logo</title><g id="_Group_" data-name="&lt;Group&gt;"><g id="_Group_2" data-name="&lt;Group&gt;"><path id="_Compound_Path_" data-name="&lt;Compound Path&gt;" class="cls-1" d="M259.47,391.07a7.76,7.76,0,0,0-6.28-3c-4.38,0-7.33,3.36-7.33,7.63a7.13,7.13,0,0,0,7.44,7.48,8.22,8.22,0,0,0,6.17-2.92v8.57a20.25,20.25,0,0,1-6.31,1.28,15.31,15.31,0,0,1-10.32-4,13.45,13.45,0,0,1-4.41-10.4,14.4,14.4,0,0,1,4-10.07,14.91,14.91,0,0,1,10.47-4.45,16.78,16.78,0,0,1,6.53,1.39Z" transform="translate(-238.42 -381.11)"/><path id="_Compound_Path_2" data-name="&lt;Compound Path&gt;" class="cls-1" d="M294.06,409.35h-8.9l-6.75-10.58h-.07v10.58h-7.15V381.84h10.69c5.44,0,9.56,2.59,9.56,8.46,0,3.79-2.12,7.08-6,7.77Zm-15.72-15.18H279c2.33,0,5-.44,5-3.43s-2.63-3.43-5-3.43h-.69Z" transform="translate(-238.42 -381.11)"/><path id="_Compound_Path_3" data-name="&lt;Compound Path&gt;" class="cls-1" d="M326.41,381.84v15.47c0,3.54-.15,7-2.88,9.7-2.3,2.26-5.91,3.06-9.12,3.06s-6.82-.8-9.12-3.06c-2.74-2.66-2.88-6.17-2.88-9.7V381.84h7.15v14.48c0,3.58.26,7.48,4.85,7.48s4.85-3.9,4.85-7.48V381.84Z" transform="translate(-238.42 -381.11)"/></g><g id="_Group_3" data-name="&lt;Group&gt;"><path id="_Compound_Path_4" data-name="&lt;Compound Path&gt;" class="cls-1" d="M349.92,403.74h15.25v5.6H337.83l15.35-22H337.83v-5.48h27.33Z" transform="translate(-238.42 -381.11)"/></g><g id="_Group_4" data-name="&lt;Group&gt;"><polygon id="_Path_" data-name="&lt;Path&gt;" class="cls-1" points="134.49 17 99.42 17 99.42 11.4 134.41 11.4 134.49 17"/></g></g></svg>